<?xml version="1.0" encoding="utf-8"?>
<!-- Generator: Adobe Illustrator 28.0.0, SVG Export Plug-In . SVG Version: 6.00 Build 0)  -->
<svg version="1.1" id="Layer_1" xmlns="http://www.w3.org/2000/svg" xmlns:xlink="http://www.w3.org/1999/xlink" x="0px" y="0px"
	 viewBox="0 0 35 35" style="enable-background:new 0 0 35 35;" xml:space="preserve">
<style type="text/css">
	.st0{display:none;opacity:0.3;}
	.st1{display:none;}
	.st2{display:inline;}
	.st3{display:none;fill:#FFFFFF;}
	.st4{fill:url(#SVGID_1_);}
	.st5{fill:url(#SVGID_00000043417940216604151830000014658799847652207264_);}
	.st6{fill:url(#SVGID_00000138569790795962923240000014879459520786537121_);}
</style>
<g>
	<path class="st0" d="M34.1,37.2H0.9c-2,0-3.6-1.6-3.6-3.6V2.6C-2.6,0.6-1-1,0.9-1h33.1c2,0,3.6,1.6,3.6,3.6v31.1
		C37.6,35.6,36,37.2,34.1,37.2z"/>
	<g class="st1">
		<g class="st2">
			<circle class="st3" cx="17.5" cy="17.5" r="26.1"/>
		</g>
		<g class="st2">
			<linearGradient id="SVGID_1_" gradientUnits="userSpaceOnUse" x1="-9.3792" y1="17.4999" x2="44.3791" y2="17.4999">
				<stop  offset="0" style="stop-color:#00AEFA"/>
				<stop  offset="1" style="stop-color:#6C58F6"/>
			</linearGradient>
			<path class="st4" d="M17.5,44.4C2.7,44.4-9.4,32.3-9.4,17.5S2.7-9.4,17.5-9.4S44.4,2.7,44.4,17.5S32.3,44.4,17.5,44.4z M17.5-7.9
				C3.5-7.9-7.9,3.5-7.9,17.5S3.5,42.9,17.5,42.9s25.4-11.4,25.4-25.4S31.5-7.9,17.5-7.9z"/>
		</g>
	</g>
	<g>
		
			<linearGradient id="SVGID_00000044884783619682210940000014484639511503494276_" gradientUnits="userSpaceOnUse" x1="12.3413" y1="12.433" x2="32.1073" y2="12.433">
			<stop  offset="0" style="stop-color:#00AEFA"/>
			<stop  offset="1" style="stop-color:#6C58F6"/>
		</linearGradient>
		<path style="fill:url(#SVGID_00000044884783619682210940000014484639511503494276_);" d="M25.1,23.2c-0.2,0-0.5-0.1-0.6-0.3
			c-0.2-0.3-0.2-0.8,0.2-1l5.1-3.6c0.5-0.4,0.8-0.8,0.9-1.1c0-0.4-0.3-0.6-0.3-0.6l-7.5-7.5c-0.1-0.1-0.2,0-0.3,0
			c0,0-0.1,0.1-0.1,0.1l-2,1.2c-0.2,0.1-0.5,0.1-0.8,0c-0.2-0.1-0.4-0.4-0.4-0.6l0-3.7c0-0.6,0-0.6-0.1-0.7l-1.5-1.5
			c-1.2,2.5-3.7,7.3-3.9,7.5c-0.2,0.4-0.7,0.5-1,0.3c-0.4-0.2-0.5-0.7-0.3-1c0-0.1,3.6-6.8,4.2-8.4C16.8,2,17,1.8,17.2,1.7
			c0.3-0.1,0.5,0,0.7,0.2l2.3,2.3c0.5,0.5,0.5,1,0.6,1.7l0,0.1l0,2.3l0.8-0.5c0.7-0.6,1.7-0.6,2.3,0.1l7.5,7.5c0,0,0.8,0.7,0.8,1.8
			c0,0.8-0.5,1.6-1.5,2.3L25.5,23C25.4,23.1,25.2,23.2,25.1,23.2z"/>
	</g>
	<g>
		
			<linearGradient id="SVGID_00000112606481570560224770000015736053170940567202_" gradientUnits="userSpaceOnUse" x1="4.1804" y1="20.2621" x2="26.1359" y2="20.2621">
			<stop  offset="0" style="stop-color:#00AEFA"/>
			<stop  offset="1" style="stop-color:#6C58F6"/>
		</linearGradient>
		<path style="fill:url(#SVGID_00000112606481570560224770000015736053170940567202_);" d="M7.1,31.3c-0.6,0-1.2-0.2-1.8-0.7
			c-1-0.9-1.2-1.9-1.1-2.5c0.1-1.6,1.7-2.8,2.6-3.4c0.2-0.1,0.3-0.2,0.5-0.3c1.2-0.8,3.6-2.2,3.8-3.6c0.1-0.3,0-0.6-0.2-0.9
			l-3.2-3.2c-0.6-0.5-1.4-2-0.3-3.5c1.1-1.4,3.6-3.6,3.7-3.7c0.3-0.3,0.7-0.2,1,0l13.6,13.6c0.1,0.1,0.2,0.3,0.2,0.5
			s-0.1,0.4-0.2,0.5l-3.6,3.6c0,0-0.5,0.6-1.4,0.7c-0.7,0.1-1.3-0.2-2-0.8c-0.9-0.8-2-1.9-2.6-2.6c-0.3-0.4-0.8-0.5-1.3-0.5
			c-0.9,0.1-1.7,0.6-2.3,1.6c-1.5,2.4-3.3,4.9-5.3,5.2C7.3,31.3,7.2,31.3,7.1,31.3z M11.7,11c-0.8,0.7-2.3,2.2-3,3.1
			c-0.6,0.8,0,1.4,0.1,1.5l3.3,3.3c0,0,0.1,0.1,0.1,0.1c0.5,0.7,0.6,1.4,0.4,2.1c-0.4,2-2.9,3.5-4.5,4.5l-0.5,0.3
			c-1.2,0.8-1.9,1.6-1.9,2.3c0,0.4,0.2,0.8,0.6,1.3c0.4,0.3,0.7,0.3,0.9,0.3c1.5-0.2,3.5-3.4,4.2-4.5c1.1-1.8,2.5-2.2,3.5-2.3
			c0.9-0.1,1.8,0.3,2.5,1c0.7,0.7,1.7,1.7,2.5,2.5c0.8,0.6,1.2,0.4,1.3,0.2l3.1-3.1L11.7,11z"/>
	</g>
</g>
</svg>
